<svg width="32" height="32" viewBox="0 0 32 32" fill="none" xmlns="http://www.w3.org/2000/svg">
  <!-- Background gradient -->
  <defs>
    <linearGradient id="grad1" x1="0%" y1="0%" x2="100%" y2="100%">
      <stop offset="0%" style="stop-color:#3B82F6;stop-opacity:1" />
      <stop offset="100%" style="stop-color:#2563EB;stop-opacity:1" />
    </linearGradient>
  </defs>
  
  <!-- Rounded square background -->
  <rect width="32" height="32" rx="6" fill="url(#grad1)"/>
  
  <!-- HTML brackets -->
  <path d="M8 10 L10 10 L10 8 L8 8 M8 24 L10 24 L10 22 L8 22" stroke="white" stroke-width="1.5" fill="white"/>
  <path d="M24 10 L22 10 L22 8 L24 8 M24 24 L22 24 L22 22 L24 22" stroke="white" stroke-width="1.5" fill="white"/>
  
  <!-- Canvas/Document icon in center -->
  <rect x="11" y="11" width="10" height="10" rx="1.5" fill="white" opacity="0.9"/>
  <rect x="13" y="13" width="6" height="2" rx="0.5" fill="#3B82F6"/>
  <rect x="13" y="16" width="4" height="1" rx="0.5" fill="#60A5FA" opacity="0.7"/>
  <rect x="13" y="18" width="5" height="1" rx="0.5" fill="#60A5FA" opacity="0.7"/>
</svg>
