<svg width="180" height="180" viewBox="0 0 180 180" fill="none" xmlns="http://www.w3.org/2000/svg">
  <!-- Background gradient -->
  <defs>
    <linearGradient id="appGrad" x1="0%" y1="0%" x2="100%" y2="100%">
      <stop offset="0%" style="stop-color:#3B82F6;stop-opacity:1" />
      <stop offset="100%" style="stop-color:#1D4ED8;stop-opacity:1" />
    </linearGradient>
  </defs>
  
  <!-- Rounded square background -->
  <rect width="180" height="180" rx="40" fill="url(#appGrad)"/>
  
  <!-- HTML brackets -->
  <path d="M40 55 L60 55 L60 45 L40 45 Z" fill="white"/>
  <path d="M40 140 L60 140 L60 130 L40 130 Z" fill="white"/>
  <path d="M140 55 L120 55 L120 45 L140 45 Z" fill="white"/>
  <path d="M140 140 L120 140 L120 130 L140 130 Z" fill="white"/>
  
  <!-- Canvas/Document icon in center -->
  <rect x="65" y="65" width="50" height="50" rx="8" fill="white" opacity="0.95"/>
  <rect x="75" y="75" width="30" height="8" rx="2" fill="#3B82F6"/>
  <rect x="75" y="88" width="20" height="5" rx="2" fill="#60A5FA" opacity="0.8"/>
  <rect x="75" y="96" width="25" height="5" rx="2" fill="#60A5FA" opacity="0.8"/>
  <rect x="75" y="104" width="18" height="5" rx="2" fill="#60A5FA" opacity="0.8"/>
</svg>
